<?xml version="1.0" encoding="UTF-8" standalone="no"?><!DOCTYPE svg PUBLIC "-//W3C//DTD SVG 1.1//EN" "http://www.w3.org/Graphics/SVG/1.1/DTD/svg11.dtd"><svg width="100%" height="100%" viewBox="0 0 4254 1891" version="1.1" xmlns="http://www.w3.org/2000/svg" xmlns:xlink="http://www.w3.org/1999/xlink" xml:space="preserve" xmlns:serif="http://www.serif.com/" style="fill-rule:evenodd;clip-rule:evenodd;stroke-linejoin:round;stroke-miterlimit:2;"><g><path d="M1637.9,1595.82c-6.05,-6.054 -15.866,-6.059 -21.916,-0l-26.263,26.258c-2.908,2.909 -4.542,6.85 -4.542,10.959c0,4.112 1.634,8.054 4.542,10.958l26.254,26.254c3.021,3.029 6.988,4.542 10.954,4.542c3.967,-0 7.934,-1.513 10.959,-4.542l26.262,-26.263c2.909,-2.904 4.542,-6.845 4.542,-10.958c-0,-4.108 -1.633,-8.05 -4.542,-10.958l-26.25,-26.25Z" style="fill:#baa660;fill-rule:nonzero;"/><path d="M2138.88,1595.82c-6.054,-6.054 -15.866,-6.059 -21.916,-0l-26.263,26.258c-2.908,2.909 -4.542,6.85 -4.542,10.959c0,4.112 1.634,8.054 4.542,10.958l26.254,26.254c3.025,3.029 6.992,4.542 10.959,4.542c3.966,-0 7.933,-1.513 10.954,-4.542l26.266,-26.263c6.055,-6.05 6.055,-15.862 0,-21.916l-26.254,-26.25Z" style="fill:#baa660;fill-rule:nonzero;"/><path d="M2389.37,1595.82c-6.055,-6.054 -15.859,-6.054 -21.917,-0l-26.258,26.258c-6.055,6.054 -6.055,15.867 -0,21.917l26.25,26.254c3.029,3.029 6.991,4.542 10.958,4.542c3.967,-0 7.933,-1.513 10.958,-4.542l26.263,-26.263c6.054,-6.05 6.054,-15.862 -0,-21.916l-26.254,-26.25Z" style="fill:#baa660;fill-rule:nonzero;"/><path d="M2666.11,1622.07l-26.254,-26.25c-6.054,-6.054 -15.858,-6.054 -21.912,-0l-26.263,26.258c-6.054,6.054 -6.054,15.867 0,21.917l26.254,26.254c3.025,3.029 6.988,4.542 10.959,4.542c3.966,-0 7.929,-1.513 10.954,-4.542l26.262,-26.263c6.054,-6.05 6.054,-15.862 0,-21.916Z" style="fill:#baa660;fill-rule:nonzero;"/><path d="M1888.39,1595.82c-6.055,-6.054 -15.867,-6.059 -21.917,-0l-26.262,26.258c-2.909,2.909 -4.542,6.85 -4.542,10.959c-0,4.112 1.633,8.054 4.542,10.958l26.254,26.254c3.025,3.029 6.987,4.542 10.954,4.542c3.966,-0 7.933,-1.513 10.958,-4.542l26.267,-26.263c2.904,-2.904 4.537,-6.845 4.537,-10.958c0,-4.108 -1.633,-8.05 -4.537,-10.958l-26.254,-26.25Z" style="fill:#baa660;fill-rule:nonzero;"/><path d="M4015.58,1654.19l-1082.04,-0l0,-42.788l1060.65,0l0,-1335.4l-3732.54,-0l0,1335.4l1060.66,0l-0,42.788l-1082.05,-0c-11.817,-0 -21.392,-9.575 -21.392,-21.392l0,-1378.19c0,-11.816 9.575,-21.391 21.392,-21.391l3775.33,-0c11.817,-0 21.396,9.575 21.396,21.391l-0,1378.19c-0,11.817 -9.579,21.392 -21.396,21.392Z" style="fill:#baa660;fill-rule:nonzero;"/><path d="M3755.91,829.096l23.75,-0l-0,70.75l17.375,-0l-0,-70.75l23.75,-0l-0,-15.375l-64.875,-0l-0,15.375Z" style="fill:#001e33;fill-rule:nonzero;"/><path d="M3870.04,884.971c-15.625,-0 -26.875,-12.875 -26.875,-28.25c-0,-15.375 11.374,-28.125 26.999,-28.125c9.125,-0 16.375,4.25 21.251,11.125l13.25,-9.625c-7.751,-10.875 -20.501,-17.875 -35.125,-17.875c-24.376,-0 -43.75,20.25 -43.75,44.5c-0,24.5 19.374,44.625 43.75,44.625c14.624,-0 27.374,-7 35.125,-17.875l-13.25,-9.625c-4.876,6.875 -12.126,11.125 -21.375,11.125Z" style="fill:#001e33;fill-rule:nonzero;"/><path d="M3748.91,989.092c-1.217,-0.888 -2.855,-0.838 -4.034,0.083c-3.317,2.617 -6.804,5.783 -10.662,9.683c-10.888,11.025 -21.342,24.584 -31.509,38.655l0,-0.059c-26.866,38.167 -55.358,56.579 -79.825,64.933c-16.987,4.267 -30.916,3.03 -39.004,1.5c-0.392,-0.229 -0.829,-0.391 -1.292,-0.441c-1.112,-0.138 -2.045,-0.454 -2.833,-0.958c-4.246,-6.871 -1.046,-30.884 36.592,-105.301c11.421,-22.591 23.821,-45.662 34.762,-66.02c30.504,-56.755 34.305,-65.171 31.242,-69.263c-0.962,-1.287 -2.533,-1.867 -4.1,-1.525c-88.938,15.334 -141.792,66.488 -192.9,115.967c-0.987,0.954 -1.967,1.904 -2.95,2.858c16.979,-31.958 34.538,-62.637 56.975,-89.446c1.646,-2.133 4.292,-4.729 7.092,-7.487c7.291,-7.175 14.183,-13.954 12.146,-20.042c-1.659,-4.967 -8.155,-5.829 -10.146,-6.087c-10.167,-1.792 -36.909,-3.354 -42.904,0.779c-0.209,0.146 -0.396,0.312 -0.575,0.504c-45.613,50.162 -77.576,114.529 -107.513,178.321c-29.917,44.133 -62.312,64.708 -89.904,73.725c-17.592,4.237 -32.134,3.162 -40.821,1.65c-0.425,-0.275 -0.892,-0.488 -1.408,-0.554c-1.117,-0.146 -2.059,-0.454 -2.838,-0.959c-4.246,-6.862 -1.046,-30.862 36.592,-105.3c11.421,-22.596 23.825,-45.671 34.767,-66.029c30.5,-56.746 34.3,-65.171 31.237,-69.254c-0.967,-1.296 -2.542,-1.858 -4.104,-1.525c-88.921,15.325 -141.763,66.471 -192.863,115.937c-1,0.967 -2,1.934 -3,2.905c16.984,-31.959 34.542,-62.638 56.996,-89.463c1.642,-2.133 4.288,-4.729 7.088,-7.487c7.291,-7.175 14.183,-13.955 12.146,-20.042c-1.659,-4.967 -8.155,-5.829 -10.146,-6.088c-10.163,-1.808 -36.909,-3.362 -42.896,0.771c-0.217,0.146 -0.404,0.321 -0.583,0.504c-41.705,45.875 -71.996,103.625 -99.771,161.942c-0.055,0.079 -0.105,0.171 -0.159,0.25c-0.179,0.279 -0.387,0.513 -0.546,0.808c-29.708,55.305 -63.05,77.805 -89.712,86.28c-15.579,3.408 -27.412,1.22 -32.217,-0.042c-0.208,-0.1 -0.341,-0.3 -0.575,-0.358c-1.975,-0.48 -3.433,-1.75 -4.583,-3.98c-19.162,-37.225 31.379,-121.354 47.992,-148.999l-0,-0.009c1.004,-1.667 2.145,-3.525 3.354,-5.483c10.337,-16.784 17.458,-29.15 14.946,-35.679c-0.729,-1.888 -2.225,-3.246 -4.213,-3.825c-0.216,-0.055 -0.437,-0.096 -0.658,-0.121c-4.559,-0.375 -8.592,-1.238 -12.871,-2.15c-8.004,-1.692 -16.296,-3.459 -27.938,-1.846c-0.65,0.087 -1.266,0.375 -1.762,0.812c-25.946,22.992 -43.3,54.975 -60.079,85.896c-25.754,47.463 -50.084,92.296 -102.829,109.704c-7.184,1.88 -9.455,-0.85 -10.2,-1.733c-11.646,-13.958 11.162,-79.471 25.379,-109.816c11.4,-24.342 54.358,-76.605 75.992,-95.021c17.925,-15.259 48.149,-30.042 65.433,-27.292c9.321,1.471 14.658,7.275 20.296,13.408c5.191,5.659 10.554,11.492 19.191,14.496c0.867,0.3 1.809,0.238 2.617,-0.187c0.817,-0.417 1.425,-1.138 1.683,-2.017c3.167,-10.596 2.23,-20.192 -2.8,-28.525c-10.112,-16.771 -33.037,-22.454 -39.821,-23.796c-49.533,-9.767 -109.945,17.888 -157.708,72.15c-24.146,27.433 -41.546,57.946 -51.321,88.038c-34.262,66.283 -72.287,93.175 -102.866,103.07c-17.434,3.776 -30.625,1.088 -36.009,-0.458c-0.721,-0.65 -1.362,-1.487 -1.925,-2.579c-0.346,-0.692 -0.612,-1.442 -0.895,-2.188l-0.28,-0.741c-1.416,-14.6 10.467,-47.65 36.309,-100.992c10.908,-22.504 22.766,-45.508 33.225,-65.796c29.4,-57.041 33.041,-65.487 29.966,-69.475c-0.966,-1.262 -2.512,-1.791 -4.054,-1.466c-83.562,15.025 -133.917,64.429 -182.008,112.958c20.317,-38.567 43.866,-84.867 30.525,-106.071c-1.042,-1.646 -3.117,-3.729 -7.138,-4.308c-18.445,-2.488 -67.4,31.283 -89.504,51.012c-5.283,4.709 -10.625,9.413 -15.966,14.125c-18.059,15.913 -36.575,32.221 -52.488,48.617c14.792,-28.867 42.329,-74.192 65.488,-110.546c0.537,-0.837 0.666,-1.879 0.358,-2.825c-0.304,-0.95 -1.025,-1.716 -1.959,-2.075c-9.695,-3.817 -22.87,-5.158 -41.458,-4.254c-0.887,0.046 -1.721,0.437 -2.316,1.104c-31.609,35.083 -66.609,99.496 -94.301,156.563c-0.795,0.683 -1.529,1.437 -2.12,2.375c-12.905,20.279 -26.434,36.008 -39.946,48.241c-36.817,29.509 -68.667,36.867 -92.508,36.004c-3.717,-18.891 -12.217,-54.679 -25.163,-67.5c77.492,-172.075 149.271,-299.299 225.804,-400.225c0.659,-0.87 0.854,-2.02 0.517,-3.062c-0.346,-1.042 -1.175,-1.854 -2.225,-2.163c-34.004,-10.108 -65.971,-0.979 -87.671,25.105c-24.963,29.987 -43.575,73.904 -61.575,116.358c-8.587,20.246 -17.467,41.187 -26.987,60.579c-5.517,11.238 -11.071,22.413 -16.6,33.513c-25.767,51.791 -50.13,100.75 -66.884,148.829l-0.379,-0c-12.238,-0 -27.983,5.621 -38.096,18.879c-3.404,4.458 -6.616,10.45 -8.529,18.296c-4.679,5.225 -9.379,10.017 -14.083,14.346c-34.575,28.108 -64.829,36.67 -88.267,37.083c-3.721,-18.879 -12.229,-54.717 -25.179,-67.538c77.504,-172.091 149.287,-299.316 225.804,-400.225c0.658,-0.87 0.854,-2.02 0.517,-3.062c-0.346,-1.042 -1.18,-1.854 -2.23,-2.163c-33.995,-10.108 -65.966,-0.979 -87.67,25.105c-24.95,29.979 -43.567,73.887 -61.567,116.341c-8.588,20.255 -17.463,41.196 -26.987,60.596c-5.526,11.254 -11.092,22.446 -16.621,33.563c-25.759,51.766 -50.109,100.716 -66.867,148.779c-12.421,0.033 -28.262,5.483 -38.475,18.879c-6.862,9 -12.942,24.196 -9.117,48.454c-34.358,16.325 -65.987,17.146 -83.291,15.821c-0.159,-0.042 -0.3,-0.125 -0.467,-0.138c-9.058,-0.749 -16.533,-5.366 -22.246,-13.737c7.913,-10.4 28.133,-37.712 38.771,-53.746c0,-0.008 0.004,-0.017 0.012,-0.017c33.505,-51.412 44.246,-138.287 8.455,-177.587c-11.421,-12.546 -30.963,-23.483 -63.113,-16.112c-41.196,12.141 -142.425,56.729 -154.054,203.745c0.096,8.975 0.571,18.454 1.554,28.521c4.321,26.458 15.129,49.804 38.071,59.296c7.142,2.279 14.825,3.375 22.837,3.375c28.709,-0 61.184,-13.2 84.517,-29.175c7.846,4.883 16.538,8.262 25.638,10.392c0.737,0.408 1.516,0.758 2.379,0.954c1.337,0.308 12.379,2.683 29.296,2.683c19.466,0 46.725,-3.237 75.875,-16.329c0.645,2.075 1.329,4.187 2.104,6.379c-5.425,16.871 -14.683,38.354 -24.475,61.067c-31.375,72.821 -70.429,163.446 -38.546,217.537c7.908,10.938 18.563,16.742 30.817,16.771l0.116,0c20.213,0 43.029,-15.337 62.621,-42.121c21.917,-29.954 74.925,-141 74.204,-230.72c27.205,-2.501 63.446,-13.126 99.28,-45.705c1.179,6.975 3.12,14.65 6.141,23.171c-5.433,16.871 -14.691,38.354 -24.479,61.075c-31.375,72.813 -70.429,163.438 -38.546,217.529c7.909,10.938 18.567,16.742 30.817,16.771l0.117,0c20.208,0 43.033,-15.346 62.62,-42.121c21.925,-29.962 74.959,-141.062 74.209,-230.804c26.429,-1.675 62.854,-10.666 99.05,-40.991c-10.867,24.75 -17.513,41.149 -17.738,41.708c-0.454,1.117 -0.262,2.396 0.496,3.346c0.637,0.795 1.6,1.246 2.604,1.246c0.183,-0 0.367,-0.017 0.55,-0.051l48.083,-8.025c1.013,-0.17 1.888,-0.795 2.38,-1.691c0.891,-1.613 88.154,-158.609 161.316,-192.571c-3.512,23.471 -13.691,47.138 -24.425,72.088c-3.629,8.433 -7.279,16.929 -10.7,25.487c-1.566,3.925 -3.525,8.262 -5.608,12.858c-9.204,20.38 -20.667,45.75 -12.667,65.709c3.863,9.633 11.988,17.025 24.129,21.929c0.85,0.35 1.784,0.321 2.609,-0.046c0.825,-0.367 1.467,-1.05 1.779,-1.896c14.533,-39.354 68.854,-167.708 166.204,-193.517c-6.837,19.467 -17.996,40.351 -28.821,60.588c-17.816,33.325 -34.645,64.829 -33.237,90.092c-0.113,0.72 -0.025,1.333 0.067,1.787c-0.055,0.404 -0.034,0.804 0.058,1.196c5.796,24.733 21.85,41.937 40.908,43.817c0.646,0.058 1.304,0.058 1.954,0.087c4.434,0.604 9.579,1.017 15.367,1.017c10.488,-0 22.992,-1.392 36.704,-5.571c25.804,-5.529 58.096,-22.358 89.15,-65.642c0.429,11.834 2.296,23.2 5.825,33.771c7.829,23.454 20.854,35.988 38.717,37.267c36.071,2.4 82.167,-42.834 106.442,-75.996c-3.021,18.733 -0.117,37.671 8.637,52.9c8.071,14.046 20.221,22.85 33.337,24.15c0.342,0.033 0.692,0.025 1.034,0.05c4.479,0.742 10.358,1.392 17.462,1.392c9.946,-0 22.125,-1.292 35.554,-5.388c13.225,-2.996 28.242,-9.067 43.73,-20.458c-3.246,6.65 -6.521,13.258 -9.842,19.783c-0.546,1.075 -0.475,2.367 0.196,3.379c0.629,0.925 1.675,1.48 2.783,1.48c0.084,-0 0.175,-0.009 0.267,-0.017l50.137,-3.996c1.029,-0.071 1.967,-0.642 2.534,-1.504c8.95,-13.738 17.345,-28.459 26.225,-44.046c14.862,-26.079 30.225,-53.033 48.804,-75.875l1.504,-1.842c24.983,-30.712 58.908,-72.404 104.079,-73.104c-5.504,15.421 -14.846,34.725 -24.687,55.063c-22.863,47.241 -46.509,96.1 -34.8,119.433c4.529,9.058 9.62,14.438 15.629,17.767c1.129,1.083 2.483,1.962 4.067,2.483c0.391,0.129 13.274,4.167 33.291,4.167c12.979,-0 28.959,-1.705 46.463,-7.263c15.779,-3.879 33.341,-11.229 51.241,-24.346c-3.458,7.088 -6.941,14.15 -10.483,21.1c-0.546,1.084 -0.475,2.375 0.196,3.379c0.629,0.925 1.675,1.48 2.783,1.48c0.083,-0 0.175,-0.009 0.267,-0.009l50.137,-3.995c1.034,-0.08 1.963,-0.642 2.534,-1.513c8.95,-13.737 17.333,-28.45 26.212,-44.029c14.863,-26.071 30.229,-53.033 48.817,-75.884l1.492,-1.833c24.983,-30.712 58.908,-72.421 104.091,-73.112c-5.504,15.412 -14.85,34.716 -24.687,55.046c-22.867,47.25 -46.509,96.1 -34.809,119.441c6.784,13.567 14.8,18.963 25.392,21.346c5.158,1.238 14.871,3.062 27.854,3.062c12.404,0 27.646,-1.704 44.334,-7.204c1.083,-0.275 2.195,-0.616 3.3,-0.941c0.887,-0.338 1.758,-0.696 2.633,-1.042c1.225,-0.529 2.45,-1.058 3.671,-1.588c0.037,0.025 0.083,0.017 0.116,0.03c60.175,-26.263 95.621,-90.8 108.213,-117.709c1.404,-3.237 2.596,-6.141 3.483,-8.558c0.525,-1.4 0.042,-2.971 -1.166,-3.858Zm-2024.24,46.458c-9.763,16.621 -8.617,35.817 2.646,52.429c-12.654,10.188 -25.359,16.321 -37.18,16.533c-8.675,-2.133 -15.991,-7.82 -21.425,-13.425c-25.758,-30.445 -11.895,-80.154 -0.85,-107.904c0.909,-1.962 1.755,-3.875 2.738,-5.891c38.479,-78.884 79.446,-100.709 103.337,-106.355c7.975,-0.887 14.501,-0.125 19.546,1c10.363,4.688 22.717,17.409 22.717,51.734c0,25.933 -16.45,68.042 -39.479,105.116c-4.858,-9.879 -12.075,-12.874 -16.7,-13.737c-12.375,-2.292 -26.909,6.138 -35.35,20.5Zm216.4,44.242c2.004,-5.496 3.929,-10.759 5.821,-15.35c7.595,10.479 13.729,25.82 16.762,41.846c-13.975,-2.484 -23.892,-7.384 -28.791,-10.28c2.137,-5.271 4.212,-10.758 6.208,-16.216Zm-75.15,301.283c-5.834,2.117 -8.525,-0.292 -9.846,-2.008c-19.888,-32.888 10.413,-109.009 37.15,-176.18c11.321,-28.454 22.054,-55.412 29.075,-78.745c8.129,4.995 18.787,7.821 30.854,8.666c3.517,0.467 7.642,0.871 12.375,1.067c3.304,108.408 -65.817,234.963 -99.608,247.2Zm285.304,-301.304c2.008,-5.479 3.929,-10.738 5.817,-15.329c7.408,10.212 13.4,25.066 16.504,40.658c-15.904,-3.85 -25.363,-10.492 -26.438,-11.283c-0.308,-0.234 -0.645,-0.388 -0.962,-0.575c1.737,-4.434 3.437,-8.959 5.079,-13.471Zm-75.15,301.304c-5.829,2.108 -8.521,-0.292 -9.846,-2.008c-19.891,-32.888 10.413,-109.009 37.142,-176.171c11.329,-28.454 22.062,-55.421 29.079,-78.754c9.946,6.104 23.571,9.145 39.063,9.033c0.287,-0.008 0.545,-0.104 0.82,-0.179c1.063,0.1 2.179,0.171 3.338,0.254c3.583,108.542 -65.742,235.562 -99.596,247.825Z" style="fill:#001e33;fill-rule:nonzero;"/><path d="M1588.29,963.825c-18.9,13.767 -28.505,32.825 -39.63,54.904c-6.199,12.304 -12.608,25.025 -21.283,38.096l-2.996,4.542c-15.029,22.883 -46.333,70.475 -73.825,66.129c-7.233,-1.15 -12.737,-4.696 -16.833,-10.85c-12.154,-18.263 -10.967,-57.721 3.529,-117.292c11.604,-47.65 24.65,-81.046 40.433,-119.279c26.567,-1.496 70.588,-8.887 83.613,-40.504c0.471,-1.146 0.271,-2.467 -0.525,-3.417c-0.8,-0.954 -2.083,-1.391 -3.271,-1.125l-5.483,1.192c-20.404,4.45 -39.725,8.658 -65.267,7.096c39.608,-107.246 88.825,-228.125 170.05,-315.238c0.959,-1.017 1.175,-2.537 0.542,-3.783c-0.634,-1.254 -1.959,-2 -3.371,-1.813c-85.408,9.879 -119.233,82.071 -151.942,151.879l-2.937,6.275c-13.35,28.409 -24.863,58.121 -36.004,86.855c-10.513,27.116 -20.459,52.766 -31.192,75.475c-90.917,-0.7 -201.513,-7.171 -257.504,-11.613c11.358,-28.012 21.892,-57.341 32.096,-85.746c20.271,-56.433 41.225,-114.775 69.295,-164.533c25.571,-2.304 70.8,-12.679 86.725,-37.987c6.517,-10.351 7.355,-21.971 2.492,-34.521c-4.725,-12.209 -11.946,-19.238 -21.466,-20.917c-28.517,-5.038 -68.434,40.717 -87.63,62.687c-3.133,3.592 -6.366,7.292 -7.221,8.221c-6.387,0.259 -15.895,0.529 -26.979,0.846c-24.004,0.683 -56.875,1.621 -80.387,3.125c-4.7,0.3 -9.45,0.633 -14.204,0.975c-54.288,5.55 -117.175,16.334 -173.546,37.004c-44.809,20.288 -150.5,79.429 -156.384,187.638c0.134,11.125 1.355,22.812 3.8,35.067c6.65,28.958 20.63,63.941 49.846,85.712c8.65,5.458 18.742,9.787 30.346,12.704c26.017,5.442 51.638,0.438 68.796,-4.821c7.013,-2.408 13.537,-5.166 19.488,-8.225c0.112,-0.058 0.225,-0.125 0.337,-0.179c1.4,-0.725 2.813,-1.433 4.15,-2.192c8.95,-4.783 17.017,-10.254 23.825,-16.191c3.592,-2.971 7.054,-6.071 10.338,-9.338c37.045,-36.821 56.275,-94.621 15.724,-140.737c-0.999,-1.146 -2.649,-1.463 -4.004,-0.788c-1.358,0.684 -2.087,2.179 -1.783,3.667c8.521,41.246 -6.592,106.375 -45.871,139.675c-23.516,19.938 -51.821,24.358 -81.862,12.775c-23.596,-9.088 -37.767,-27.033 -42.113,-53.321c-10.116,-61.187 36.163,-152.212 71.108,-181.387c66.955,-55.859 181.863,-64.413 283.25,-71.946c12.7,-0.954 25.184,-1.875 37.325,-2.884c-28.545,54.355 -54.133,112.796 -78.908,169.371c-10.916,24.934 -22.196,50.709 -33.592,75.796c-33.066,-0.975 -76.183,3.321 -81.325,47.088c-0.216,1.82 1.084,3.475 2.905,3.704c18.291,2.291 36.32,-5.088 50.825,-11.013c5.641,-2.304 10.766,-4.387 15.171,-5.646c-32.963,82.609 -150.53,322.9 -406.401,342.546c-79.395,6.092 -149.712,-13.241 -192.983,-53.071c-31.004,-28.537 -47.537,-67.229 -47.812,-111.895c-0.434,-69.492 41.758,-116.075 66.941,-137.655c0.679,-0.579 1.417,-1.175 2.192,-1.799c4.975,-4.013 11.783,-9.505 14.863,-19.825c0.354,-1.18 0.029,-2.451 -0.838,-3.321c-0.662,-0.659 -1.562,-0.88 -2.475,-0.855c-12.342,4.296 -79.2,31.196 -101.675,116.617c-13.221,58.35 -20.212,174 106.292,238.096c4.262,2.158 8.296,4.258 12.308,6.346c38.025,16.1 83.525,25.141 135.375,26.125c2.971,0.058 5.921,0.083 8.854,0.083c252.004,0 368.688,-206.154 458.071,-400.662c9.542,0.341 24.333,0.629 42.687,0.97c56.459,1.05 150.063,2.8 212.959,9.359c-12.838,30.208 -84.175,205.6 -37.829,266.642c12.783,16.829 33.3,23.354 61.004,19.391c71.029,-10.137 111.621,-108.871 138.479,-174.2c2.975,-7.246 5.754,-14 8.358,-20.096c0.592,-1.383 0.184,-2.983 -0.991,-3.929c-1.175,-0.937 -2.825,-0.958 -4.05,-0.079Zm-254.45,-438.021c8.858,20.196 -28.025,25.388 -48.075,32.054c13.629,-11.354 36.229,-48.591 48.075,-32.054Z" style="fill:#001e33;fill-rule:nonzero;"/></g></svg>